<svg width="172" height="213" viewBox="0 0 172 213" fill="none" xmlns="http://www.w3.org/2000/svg">
<path d="M109.287 0.510742C124.065 0.510742 136.424 4.95545 146.352 13.8447C156.279 22.7481 161.24 34.5301 161.24 49.2041C161.24 58.1358 159.049 65.8118 154.652 72.2178C150.255 78.6233 144.539 83.4206 137.541 86.6094C148.048 89.4875 156.421 94.7794 162.642 102.512H162.653C168.89 110.245 172 119.811 172 131.224C172 145.826 167.051 157.511 157.167 166.287C147.283 175.064 134.984 179.452 120.276 179.452H104.145L133.779 209.026H133.795L130.006 212.81L0.731445 83.8154L4.52148 80.0342L36.4365 111.883V0.510742H109.287ZM67.2627 100.239V142.646L76.9404 152.305H116.061C122.905 152.305 128.719 149.849 133.511 144.911C138.303 139.989 140.695 134.497 140.695 127.5C140.695 120.503 138.263 114.21 133.396 108.623C128.534 103.034 122.751 100.239 116.061 100.239H67.2627ZM67.2627 27.418V74.9541H105.794C112.796 74.9541 118.634 72.8384 123.3 68.6055L123.315 68.5908C127.981 64.3578 130.313 58.8975 130.313 52.2236C130.313 45.5497 127.899 39.7498 123.075 34.8115C118.256 29.887 112.484 27.418 105.794 27.418H67.2627Z" fill="#45396A"/>
</svg>
