<svg width="109" height="24" viewBox="0 0 109 24" fill="none" xmlns="http://www.w3.org/2000/svg">
<path d="M12.2725 0C13.9429 8.34773e-05 15.3398 0.502979 16.4619 1.50781C17.5841 2.51431 18.1455 3.84606 18.1455 5.50488C18.1455 6.51451 17.8975 7.38231 17.4004 8.10645C16.9033 8.83052 16.2569 9.37293 15.4658 9.7334C16.6537 10.0588 17.6005 10.6571 18.3037 11.5312H18.3047C19.0097 12.4055 19.3613 13.4872 19.3613 14.7773C19.3612 16.4279 18.8017 17.7482 17.6846 18.7402C16.5673 19.7323 15.1771 20.2285 13.5146 20.2285H11.6904L15.041 23.5723H15.043L14.6143 24L0 9.41699L0.428711 8.99023L4.03613 12.5898V0H12.2725ZM41.9443 5.62891C43.3798 5.62891 44.64 6.00834 45.7207 6.76758C46.8014 7.52678 47.415 8.62286 47.5605 10.0566H44.5088C44.3892 9.51949 44.1044 9.10665 43.6572 8.81641C43.2079 8.52608 42.6876 8.36516 42.0977 8.33008C41.4652 8.29666 40.9394 8.39653 40.5205 8.63086C40.1021 8.86523 39.8917 9.21306 39.8916 9.67383C39.8916 9.93861 39.9578 10.1612 40.0908 10.3398C40.2233 10.5182 40.4454 10.6822 40.7568 10.832C41.0683 10.982 41.3584 11.1004 41.6221 11.1914C41.8871 11.2807 42.2625 11.3863 42.75 11.5059C42.9209 11.5569 43.0538 11.5899 43.1484 11.6074C43.7972 11.7781 44.3485 11.9619 44.8027 12.1582C45.2547 12.3545 45.7331 12.6124 46.2314 12.9316C46.7321 13.2523 47.1125 13.6704 47.373 14.1855C47.6336 14.702 47.7646 15.2919 47.7646 15.957C47.7646 17.3221 47.2502 18.4183 46.2197 19.2461C45.1885 20.0739 43.8231 20.4873 42.1221 20.4873L42.125 20.4844C40.2358 20.4843 38.7519 20.0037 37.6748 19.0449C36.5974 18.0848 35.9948 16.9876 35.8672 15.75H38.9189C39.0564 16.3991 39.422 16.927 40.0215 17.3369C40.619 17.7468 41.2861 17.9337 42.0215 17.9004C43.4747 17.8315 44.2021 17.2431 44.2021 16.1348C44.2021 15.597 43.9349 15.1869 43.4014 14.9062C42.8673 14.6256 42.0648 14.3559 40.9971 14.1006C40.313 13.93 39.7416 13.7646 39.2842 13.6016C38.8273 13.439 38.3378 13.2071 37.8154 12.9043C37.2944 12.601 36.9012 12.214 36.6357 11.7402C36.3703 11.2666 36.2383 10.7145 36.2383 10.083C36.2383 8.73514 36.7689 7.65503 37.8291 6.84473C38.8888 6.03458 40.2596 5.62895 41.9443 5.62891ZM27.4678 5.73242C29.2708 5.73242 30.6856 6.18254 31.7119 7.08203C32.7382 7.98161 33.2519 9.32323 33.252 11.1064V15.8281C33.252 17.0306 33.6273 17.6317 34.3799 17.6318V20.2822H33.4053C32.9004 20.2645 32.4944 20.2307 32.1875 20.1797C31.8792 20.1286 31.5414 19.9754 31.1738 19.7188C30.8062 19.4634 30.5282 19.1092 30.3408 18.6562C29.9397 19.1936 29.3179 19.6292 28.4756 19.9609C27.6332 20.294 26.7202 20.4599 25.7373 20.46V20.459C24.3354 20.459 23.1952 20.0796 22.3193 19.3203C21.4434 18.5609 21.0049 17.5208 21.0049 16.1982C21.0049 14.8761 21.5435 13.8515 22.6211 13.0508C23.6983 12.2487 25.1312 11.777 26.917 11.6318L29.9941 11.376V11.0557C29.9941 9.34098 28.9963 8.5001 27.3662 8.48438C26.5461 8.48438 25.8548 8.68667 25.2939 9.0918C24.7345 9.49693 24.4193 10.1096 24.3506 10.9277H21.376C21.496 9.44295 22.0503 8.20665 23.043 7.21777C24.034 6.22892 25.5095 5.73249 27.4678 5.73242ZM101.369 5.72949C103.421 5.72949 105.042 6.39229 106.229 7.71289C107.417 9.03511 108.012 10.8056 108.012 13.0225V13.0244C108.012 13.3578 107.985 13.7326 107.935 14.1504H97.8428C97.9275 15.2333 98.3082 16.0929 98.9844 16.7275C99.6585 17.3621 100.463 17.6816 101.396 17.6816C103.096 17.6815 104.242 17.0374 104.832 15.75H107.717C107.503 17.0467 106.856 18.1471 105.775 19.0518C104.693 19.9559 103.225 20.4082 101.369 20.4082C99.2836 20.408 97.6019 19.7186 96.3232 18.3408C95.0463 16.9628 94.4063 15.2077 94.4062 13.0752C94.4063 10.9429 95.023 9.14366 96.2588 7.77832C97.4942 6.41312 99.1969 5.72966 101.369 5.72949ZM56.167 5.72949C58.2178 5.72949 59.8395 6.39118 61.0273 7.71191C62.2147 9.03429 62.8096 10.8055 62.8096 13.0225V13.0244C62.8095 13.3578 62.7837 13.7327 62.7324 14.1504H52.6406C52.7254 15.233 53.1063 16.0925 53.7822 16.7275C54.4569 17.3622 55.2607 17.6816 56.1924 17.6816C57.8934 17.6816 59.04 17.0371 59.6299 15.75H62.5146C62.3004 17.0468 61.653 18.1471 60.5723 19.0518C59.4902 19.9559 58.0228 20.4072 56.167 20.4072C54.081 20.4072 52.399 19.7189 51.1201 18.3408C49.8413 16.9627 49.2041 15.2078 49.2041 13.0752C49.2041 10.9426 49.821 9.14276 51.0566 7.77734C52.2922 6.41214 53.995 5.72951 56.167 5.72949ZM68.7061 20.2803H65.3965V0.625977H68.7061V20.2803ZM76.043 20.2793H72.5039V5.87012H76.043V20.2793ZM87.2607 5.67969C88.9103 5.67969 90.204 6.14236 91.1406 7.06738C92.0771 7.99246 92.5439 9.28775 92.5439 10.9512V20.2793H88.9668V11.374C88.9668 10.556 88.7314 9.92591 88.2617 9.4873C87.7919 9.0488 87.1198 8.82816 86.249 8.82812C85.2998 8.82818 84.4744 9.08188 83.7744 9.58887C83.0744 10.096 82.7227 10.7521 82.7227 11.5527V20.2793H79.1191V5.87305H82.3242L82.5674 7.75293C83.0885 7.12139 83.7747 6.61956 84.625 6.24316C85.4753 5.86842 86.3541 5.67977 87.2588 5.67969H87.2607ZM27.5693 13.957C25.5009 14.2044 24.4689 14.8949 24.4785 16.0303C24.4785 16.568 24.6801 16.9985 25.0811 17.3223C25.4821 17.646 25.9829 17.8095 26.582 17.8096C27.3 17.8096 27.9704 17.6256 28.5889 17.2588C29.2089 16.892 29.6759 16.4487 29.9922 15.9287V13.7021L27.5693 13.957ZM7.52148 11.2744V16.0674L8.61523 17.1602H13.0381C13.8117 17.1601 14.4691 16.8824 15.0107 16.3242C15.5524 15.7678 15.8223 15.1464 15.8223 14.3555C15.8222 13.5647 15.5481 12.8531 14.998 12.2217C14.4484 11.5899 13.7943 11.2745 13.0381 11.2744H7.52148ZM101.343 8.50684C100.378 8.50708 99.606 8.78783 99.0293 9.35059C98.4524 9.91367 98.0861 10.6813 97.9326 11.6543H104.601C104.319 9.55537 103.232 8.50697 101.343 8.50684ZM56.1406 8.50684C55.1755 8.50703 54.4034 8.78772 53.8262 9.35059C53.2495 9.91352 52.884 10.6807 52.7305 11.6533H59.3975C59.1163 9.55479 58.0298 8.50712 56.1406 8.50684ZM7.52148 3.04199V8.41602H11.877C12.6686 8.41602 13.329 8.17678 13.8564 7.69824L13.8584 7.69629C14.3856 7.21778 14.6494 6.60004 14.6494 5.8457C14.6493 5.0915 14.3761 4.43605 13.8311 3.87793C13.2862 3.32122 12.6333 3.04199 11.877 3.04199H7.52148ZM74.2305 0.625977C74.734 0.62605 75.1986 0.810115 75.5693 1.17676C75.9418 1.54354 76.1278 1.98808 76.1279 2.5127C76.1279 3.03747 75.9419 3.48272 75.5693 3.84961C75.1973 4.21627 74.7514 4.40032 74.2305 4.40039C73.7255 4.40032 73.2858 4.21635 72.9102 3.84961C72.5346 3.48276 72.3457 3.03738 72.3457 2.5127C72.3458 1.98814 72.5346 1.54351 72.9102 1.17676C73.2858 0.809987 73.7273 0.626051 74.2305 0.625977Z" fill="#080A11"/>
</svg>
